<svg width="44" height="47" viewBox="0 0 44 47" fill="none" xmlns="http://www.w3.org/2000/svg">
<path d="M9.93848 11.8818C9.98647 11.7432 10.0802 11.625 10.2043 11.5467C10.3284 11.4684 10.4754 11.4347 10.6212 11.4511C11.5711 11.4511 12.5209 11.4511 13.4708 11.4511C13.9016 11.4511 14.0588 11.5825 14.1406 11.9895C14.3194 12.8511 14.4896 13.7126 14.6705 14.6022H14.9656C21.0997 14.6022 27.2331 14.6022 33.3659 14.6022C33.5054 14.5959 33.6448 14.6186 33.7751 14.6689C33.8833 14.7159 33.9714 14.7996 34.0238 14.9052C34.0762 15.0108 34.0896 15.1316 34.0616 15.2462C33.8979 16.5471 33.7335 17.8473 33.5683 19.1468C33.4563 20.0342 33.3529 20.9215 33.228 21.8089C33.0385 23.1314 31.884 24.0532 30.5056 24.0489C25.9825 24.0317 21.4443 24.0489 16.9148 24.0489H16.5594C16.6369 24.4366 16.6908 24.8071 16.7877 25.1646C17.1345 26.4569 18.1188 27.1978 19.4671 27.1978H31.2228C31.3399 27.1949 31.4569 27.205 31.5717 27.228C31.6879 27.2542 31.7907 27.3217 31.8608 27.418C31.9309 27.5143 31.9637 27.6327 31.9529 27.7514C31.949 27.8691 31.9036 27.9816 31.8248 28.069C31.746 28.1565 31.6388 28.2134 31.5222 28.2295C31.4292 28.2403 31.3357 28.2446 31.2422 28.2425H19.5016C17.4963 28.2425 16.0748 27.0406 15.6849 25.0677C14.8693 20.9495 14.0487 16.835 13.2231 12.724C13.2081 12.6513 13.1895 12.5794 13.1671 12.5086H12.9237C12.1612 12.5086 11.3988 12.5086 10.6385 12.5086C10.495 12.5283 10.3491 12.5007 10.2228 12.4299C10.0964 12.3592 9.99664 12.2492 9.93848 12.1166V11.8818ZM32.9416 15.6769H14.8794C15.3705 18.128 15.8572 20.5618 16.3462 23H30.4926C31.4985 23 32.1102 22.4249 32.2157 21.4255C32.3859 19.9674 32.5776 18.5135 32.7606 17.0575C32.8274 16.6031 32.8834 16.1443 32.9416 15.6769Z" fill="black"/>
<path d="M16.2363 31.9298C16.2346 31.4113 16.3868 30.904 16.6735 30.4719C16.9602 30.0399 17.3686 29.7025 17.847 29.5026C18.3254 29.3027 18.8524 29.2492 19.3613 29.3489C19.8701 29.4485 20.338 29.6968 20.7057 30.0624C21.0734 30.428 21.3244 30.8945 21.427 31.4027C21.5296 31.911 21.4791 32.4383 21.2819 32.9179C21.0848 33.3974 20.7498 33.8078 20.3194 34.097C19.889 34.3861 19.3826 34.5412 18.864 34.5425C18.5198 34.5442 18.1785 34.4779 17.8599 34.3474C17.5413 34.2168 17.2517 34.0247 17.0075 33.782C16.7634 33.5392 16.5696 33.2506 16.4372 32.9328C16.3049 32.615 16.2366 32.2741 16.2363 31.9298ZM18.849 30.3489C18.5386 30.3498 18.2354 30.4426 17.9778 30.6156C17.7202 30.7887 17.5196 31.0342 17.4014 31.3212C17.2832 31.6082 17.2527 31.9237 17.3138 32.228C17.3749 32.5323 17.5248 32.8117 17.7445 33.0309C17.9643 33.25 18.2441 33.3991 18.5485 33.4594C18.853 33.5196 19.1685 33.4883 19.4551 33.3693C19.7418 33.2503 19.9868 33.0491 20.1591 32.791C20.3314 32.5328 20.4234 32.2294 20.4234 31.9191C20.4217 31.5024 20.2551 31.1034 19.9601 30.8092C19.6651 30.515 19.2656 30.3495 18.849 30.3489Z" fill="black"/>
<path d="M29.3338 29.3C29.8522 29.2987 30.3594 29.4512 30.7912 29.7382C31.2229 30.0251 31.5599 30.4337 31.7595 30.9122C31.959 31.3906 32.0122 31.9175 31.9124 32.4263C31.8125 32.935 31.564 33.4026 31.1983 33.7701C30.8326 34.1376 30.3662 34.3884 29.858 34.4908C29.3497 34.5932 28.8226 34.5426 28.3431 34.3454C27.8637 34.1482 27.4535 33.8132 27.1644 33.3829C26.8753 32.9525 26.7203 32.4461 26.719 31.9277C26.7173 31.5832 26.7837 31.2418 26.9143 30.9231C27.045 30.6044 27.2373 30.3146 27.4803 30.0704C27.7233 29.8262 28.0121 29.6325 28.3302 29.5003C28.6483 29.3681 28.9893 29.3 29.3338 29.3ZM30.9104 31.9169C30.91 31.6066 30.8176 31.3033 30.6449 31.0454C30.4722 30.7875 30.2269 30.5866 29.9401 30.468C29.6533 30.3495 29.3378 30.3185 29.0334 30.3792C28.729 30.4399 28.4495 30.5894 28.23 30.8088C28.0105 31.0283 27.861 31.3078 27.8004 31.6122C27.7397 31.9166 27.7706 32.2321 27.8892 32.519C28.0078 32.8058 28.2087 33.051 28.4666 33.2237C28.7245 33.3964 29.0277 33.4888 29.3381 33.4892C29.7551 33.4892 30.155 33.3236 30.4499 33.0287C30.7448 32.7338 30.9104 32.3339 30.9104 31.9169Z" fill="black"/>
<path d="M9.93848 11.8818C9.98647 11.7432 10.0802 11.625 10.2043 11.5467C10.3284 11.4684 10.4754 11.4347 10.6212 11.4511C11.5711 11.4511 12.5209 11.4511 13.4708 11.4511C13.9016 11.4511 14.0588 11.5825 14.1406 11.9895C14.3194 12.8511 14.4896 13.7126 14.6705 14.6022H14.9656C21.0997 14.6022 27.2331 14.6022 33.3659 14.6022C33.5054 14.5959 33.6448 14.6186 33.7751 14.6689C33.8833 14.7159 33.9714 14.7996 34.0238 14.9052C34.0762 15.0108 34.0896 15.1316 34.0616 15.2462C33.8979 16.5471 33.7335 17.8473 33.5683 19.1468C33.4563 20.0342 33.3529 20.9215 33.228 21.8089C33.0385 23.1314 31.884 24.0532 30.5056 24.0489C25.9825 24.0317 21.4443 24.0489 16.9148 24.0489H16.5594C16.6369 24.4366 16.6908 24.8071 16.7877 25.1646C17.1345 26.4569 18.1188 27.1978 19.4671 27.1978H31.2228C31.3399 27.1949 31.4569 27.205 31.5717 27.228C31.6879 27.2542 31.7907 27.3217 31.8608 27.418C31.9309 27.5143 31.9637 27.6327 31.9529 27.7514C31.949 27.8691 31.9036 27.9816 31.8248 28.069C31.746 28.1565 31.6388 28.2134 31.5222 28.2295C31.4292 28.2403 31.3357 28.2446 31.2422 28.2425H19.5016C17.4963 28.2425 16.0748 27.0406 15.6849 25.0677C14.8693 20.9495 14.0487 16.835 13.2231 12.724C13.2081 12.6513 13.1895 12.5794 13.1671 12.5086H12.9237C12.1612 12.5086 11.3988 12.5086 10.6385 12.5086C10.495 12.5283 10.3491 12.5007 10.2228 12.4299C10.0964 12.3592 9.99664 12.2492 9.93848 12.1166V11.8818ZM32.9416 15.6769H14.8794C15.3705 18.128 15.8572 20.5618 16.3462 23H30.4926C31.4985 23 32.1102 22.4249 32.2157 21.4255C32.3859 19.9674 32.5776 18.5135 32.7606 17.0575C32.8274 16.6031 32.8834 16.1443 32.9416 15.6769Z" fill="#E2B013"/>
<path d="M16.2363 31.9298C16.2346 31.4113 16.3868 30.904 16.6735 30.4719C16.9602 30.0399 17.3686 29.7025 17.847 29.5026C18.3254 29.3027 18.8524 29.2492 19.3613 29.3489C19.8701 29.4485 20.338 29.6968 20.7057 30.0624C21.0734 30.428 21.3244 30.8945 21.427 31.4027C21.5296 31.911 21.4791 32.4383 21.2819 32.9179C21.0848 33.3974 20.7498 33.8078 20.3194 34.097C19.889 34.3861 19.3826 34.5412 18.864 34.5425C18.5198 34.5442 18.1785 34.4779 17.8599 34.3474C17.5413 34.2168 17.2517 34.0247 17.0075 33.782C16.7634 33.5392 16.5696 33.2506 16.4372 32.9328C16.3049 32.615 16.2366 32.2741 16.2363 31.9298ZM18.849 30.3489C18.5386 30.3498 18.2354 30.4426 17.9778 30.6156C17.7202 30.7887 17.5196 31.0342 17.4014 31.3212C17.2832 31.6082 17.2527 31.9237 17.3138 32.228C17.3749 32.5323 17.5248 32.8117 17.7445 33.0309C17.9643 33.25 18.2441 33.3991 18.5485 33.4594C18.853 33.5196 19.1685 33.4883 19.4551 33.3693C19.7418 33.2503 19.9868 33.0491 20.1591 32.791C20.3314 32.5328 20.4234 32.2294 20.4234 31.9191C20.4217 31.5024 20.2551 31.1034 19.9601 30.8092C19.6651 30.515 19.2656 30.3495 18.849 30.3489Z" fill="#E2B013"/>
<path d="M29.3338 29.3C29.8522 29.2987 30.3594 29.4512 30.7912 29.7382C31.2229 30.0251 31.5599 30.4337 31.7595 30.9122C31.959 31.3906 32.0122 31.9175 31.9124 32.4263C31.8125 32.935 31.564 33.4026 31.1983 33.7701C30.8326 34.1376 30.3662 34.3884 29.858 34.4908C29.3497 34.5932 28.8226 34.5426 28.3431 34.3454C27.8637 34.1482 27.4535 33.8132 27.1644 33.3829C26.8753 32.9525 26.7203 32.4461 26.719 31.9277C26.7173 31.5832 26.7837 31.2418 26.9143 30.9231C27.045 30.6044 27.2373 30.3146 27.4803 30.0704C27.7233 29.8262 28.0121 29.6325 28.3302 29.5003C28.6483 29.3681 28.9893 29.3 29.3338 29.3ZM30.9104 31.9169C30.91 31.6066 30.8176 31.3033 30.6449 31.0454C30.4722 30.7875 30.2269 30.5866 29.9401 30.468C29.6533 30.3495 29.3378 30.3185 29.0334 30.3792C28.729 30.4399 28.4495 30.5894 28.23 30.8088C28.0105 31.0283 27.861 31.3078 27.8004 31.6122C27.7397 31.9166 27.7706 32.2321 27.8892 32.519C28.0078 32.8058 28.2087 33.051 28.4666 33.2237C28.7245 33.3964 29.0277 33.4888 29.3381 33.4892C29.7551 33.4892 30.155 33.3236 30.4499 33.0287C30.7448 32.7338 30.9104 32.3339 30.9104 31.9169Z" fill="#E2B013"/>
</svg>
